<?xml version="1.0" encoding="UTF-8"?>
<!DOCTYPE svg PUBLIC "-//W3C//DTD SVG 1.1//EN" "http://www.w3.org/Graphics/SVG/1.1/DTD/svg11.dtd">
<!-- Creator: CorelDRAW 2019 (64-Bit) -->
<svg xmlns="http://www.w3.org/2000/svg" xml:space="preserve" width="991px" height="1080px" version="1.1" style="shape-rendering:geometricPrecision; text-rendering:geometricPrecision; image-rendering:optimizeQuality; fill-rule:evenodd; clip-rule:evenodd"
viewBox="0 0 991 1080.03"
 xmlns:xlink="http://www.w3.org/1999/xlink"
 xmlns:xodm="http://www.corel.com/coreldraw/odm/2003">
 <defs>
  <style type="text/css">
   <![CDATA[
    .fil0 {fill:red}
    .fil2 {fill:url(#id0)}
    .fil1 {fill:url(#id1)}
   ]]>
  </style>
  <linearGradient id="id0" gradientUnits="userSpaceOnUse" x1="621.61" y1="237.59" x2="108.02" y2="941.63">
   <stop offset="0" style="stop-opacity:1; stop-color:white"/>
   <stop offset="1" style="stop-opacity:1; stop-color:red"/>
  </linearGradient>
  <radialGradient id="id1" gradientUnits="userSpaceOnUse" gradientTransform="matrix(2.33026 -1.33268 1.33268 2.33028 -1166 1190)" cx="884.69" cy="-8.1" r="110.36" fx="884.69" fy="-8.1">
   <stop offset="0" style="stop-opacity:1; stop-color:white"/>
   <stop offset="0.501961" style="stop-opacity:1; stop-color:red"/>
   <stop offset="0.219608" style="stop-opacity:1; stop-color:#FF7F7F"/>
   <stop offset="1" style="stop-opacity:1; stop-color:red"/>
  </radialGradient>
 </defs>
 <g id="Layer_x0020_1">
  <metadata id="CorelCorpID_0Corel-Layer"/>
  <path class="fil0" d="M788.11 1011.67c11.11,-14.26 23.8,-27.35 36.03,-41.59 4.53,-5.28 15.63,-14.6 8.28,-25.78 -6.69,-10.17 -18.63,-6.07 -24.75,1.19 -11.93,14.15 -23.62,27.01 -35.46,40.89 -5.64,6.61 -31.67,37.33 -36.12,39.61 -0.8,-39.56 -0.53,-80.33 -0.16,-119.95 0.34,-36.77 -24.49,-24.05 -27.34,-15.66 -2.51,7.36 -1.05,102.27 -1.05,118.04 0,30.06 -8.52,76.57 17.74,70.64 9.94,-2.25 28.67,-33.26 42.97,-44.41 17.04,6.87 45.59,60.42 63.24,40.24 11.68,-13.35 -9.63,-28.55 -15.55,-34.56 -6.15,-6.24 -24.65,-23 -27.83,-28.66zm-537.67 0c10.26,-12.98 24.03,-28.95 35.88,-41.58 25.64,-27.33 -1.85,-41.04 -16.36,-24.48 -8.99,10.25 -66.03,77.1 -71.66,80.27 -1.03,-39.36 -0.39,-80.36 -0.12,-119.84 0.07,-10.13 0.31,-19.51 -8.05,-23.2 -7.61,-3.35 -16.68,0.13 -19.26,7.54 -2.12,6.11 -1.08,103.51 -1.08,118.04 -0.01,30.12 -8.49,76.64 17.62,70.72 9.22,-2.09 30.64,-34.13 43.01,-44.28 15.58,4.89 45.57,60.58 63.26,40.09 15.65,-18.12 -27.6,-40.18 -43.24,-63.28zm-188.4 -44c24.32,-5.83 45.16,11.77 49.89,30.75 6.3,25.24 -10.57,46.34 -29.99,51.46 -53.96,14.22 -77.71,-68.35 -19.9,-82.21zm49.77 100.2c5.23,4.86 2.59,7.59 9.76,10.49 4.22,1.71 9.53,1.4 13.59,-1.07 8.64,-5.24 6.35,-18.3 6.39,-29.88 0.09,-23.19 2.41,-48.12 -6.19,-67.43 -13.58,-30.51 -55.31,-56.13 -97.26,-33.9 -56.99,30.19 -48.33,114.5 14.55,131.3 30.7,8.2 46.57,-5.93 59.16,-9.51zm485.79 -100.07c25.21,-8.01 46.53,11.79 51.74,29.38 7.64,25.85 -10.57,46.86 -28.28,52.21 -52.59,15.92 -80.23,-63.56 -23.46,-81.59zm52.03 99.28c4.33,5.99 8.91,17.65 22.37,10.91 9.43,-4.72 7.23,-17.93 7.22,-30.58 -0.03,-22.67 2.42,-48.43 -5.99,-67.41 -13.96,-31.56 -57.46,-56.19 -98.45,-33.49 -29.34,16.24 -51.97,59.46 -26.38,99.81 9.26,14.59 24.58,26.91 43.19,31.43 25.2,6.13 40.92,-1.83 58.04,-10.67zm213.86 -42.42c6.3,52.49 76.5,75.76 112.31,32.05 19.06,-23.27 14.77,-46.01 14.8,-80.79 0.01,-15.76 3.29,-33.8 -9.93,-37.16 -40.56,-10.34 3.78,83.9 -35.21,107.14 -25.89,15.43 -53.44,-3.02 -53.82,-32.54 -0.44,-33.5 7.49,-84.91 -20.14,-74.1 -11.69,4.57 -8.41,23.69 -8.42,38.29 0,13.71 -1.15,34.16 0.41,47.11zm-411.79 3.26c2.5,-12.3 1.25,-33.3 1.25,-47.12 -0.01,-13.38 3.39,-34.6 -6.59,-40.55 -6.84,-4.08 -14.51,-1.89 -18.32,2.59 -13.16,15.47 10.27,80.65 -17.44,101.14 -9.52,7.04 -23.93,10.43 -37.3,3.38 -43.63,-22.97 1.62,-109.63 -33.98,-109.12 -17.1,0.24 -13.75,19.06 -13.75,34.43 0.01,31.17 -4.38,60.26 12.9,82.02 34.5,43.42 102.22,27.31 113.23,-26.77zm29.94 40.62c2.86,14.43 27.28,16.76 28.33,-4.8l-0.71 -170.16c-2.82,-16.27 -27.44,-17.85 -28.26,4.25l0.26 113.84c0.02,12.2 -1.52,47.27 0.38,56.87z"/>
  <path class="fil1" d="M495.5 0c223.9,0 405.41,181.5 405.41,405.4 0,223.91 -181.51,405.41 -405.41,405.41 -223.9,0 -405.41,-181.5 -405.41,-405.41 0,-223.9 181.51,-405.4 405.41,-405.4z"/>
  <path class="fil2" d="M433.71 488.46c-69.34,-15.1 -111.27,-79 -99.37,-151.95 10.39,-63.75 65.91,-105.84 129.03,-106.21l23 2.7c54.01,10.64 98.05,59.33 100.61,122.08 0.13,85.07 -66.98,152.17 -153.27,133.38zm-144.18 -245.57c-106.55,164.62 38.91,362.15 218.6,321.92 13.67,-3.06 26.4,-7.18 38.85,-12.72 6.11,-2.72 12.1,-5.6 17.88,-8.75 11.15,-6.78 18.88,-11.81 31.37,-21.96 5.86,-4.76 7.46,-9.43 15.83,-10.16 5.81,1.43 13.94,28.82 45.47,26.48 19.39,-1.45 33.51,-16.53 37.73,-33.47l0.04 -18.41c-3.15,-34.06 -6.13,-67.47 -11.99,-101.23 -7.46,-42.99 -21.75,-103.08 -45.45,-137.81 -38.39,-56.25 -81.69,-80.12 -146.16,-92.88 -76.34,-11.48 -159.92,23.71 -202.17,88.99zm413.96 -2.79c10.42,38.41 21.21,82.44 26.35,124.64l9.03 81.2c1.13,25.25 -0.64,37.52 8.21,58.92 10.74,15.92 37.54,28.46 60.71,5.72 36.92,-36.24 -18.36,-265.01 -35.95,-314.73 -12.4,-35.09 -34.59,-97.29 -56.23,-114.49 -9.78,-7.77 -39.9,-29.55 -60.55,-24.2 -24.46,6.34 -1.61,41.84 4.52,56.68 13.16,31.86 37.46,93.43 43.91,126.26l0 0z"/>
 </g>
</svg>
